<svg xmlns="http://www.w3.org/2000/svg" width="1620" height="128" viewBox="17 18 1620 128"><path d="M101 92L101 107C91 112 80 115 67 115 57 115 48 113 41 109 33 104 28 99 23 91 19 84 17 76 17 67 17 54 22 42 32 33 41 24 53 19 67 19 77 19 88 22 100 27L100 41C89 35 79 32 68 32 57 32 49 35 41 42 34 49 31 57 31 67 31 78 34 86 41 93 48 99 57 103 68 103 79 103 90 99 101 92L101 92ZM142 52C152 52 160 55 166 61 172 67 175 75 175 84 175 93 172 100 166 106 159 112 151 115 142 115 133 115 125 112 119 106 113 100 109 93 109 84 109 75 113 67 119 61 125 55 133 52 142 52L142 52ZM142 63C136 63 131 65 127 69 124 73 122 78 122 84 122 89 124 94 128 98 131 102 136 104 142 104 148 104 153 102 157 98 161 94 163 89 163 83 163 78 161 73 157 69 153 65 148 63 142 63L142 63ZM186 21L198 21 198 114 186 114 186 21ZM265 84L222 84C222 90 224 95 228 98 232 102 236 103 242 103 250 103 257 101 264 96L264 108C260 110 257 112 253 113 249 114 245 115 240 115 233 115 228 113 224 111 220 108 216 104 214 99 211 95 210 89 210 83 210 73 213 66 218 60 223 54 230 51 238 51 247 51 253 54 258 60 263 65 265 73 265 83L265 84ZM222 77L253 77C253 72 251 68 249 66 246 63 243 62 238 62 234 62 231 63 228 66 225 68 223 72 222 77L222 77ZM272 74C272 67 275 62 280 58 284 54 291 52 299 52L325 52 325 62 312 62C315 64 316 67 317 69 318 71 319 73 319 75 319 79 318 82 316 85 314 88 312 90 309 92 306 94 301 95 295 96 290 97 288 98 288 101 288 102 289 103 290 104 292 105 295 106 300 107 307 109 312 110 314 111 316 112 318 113 320 115 323 118 324 122 324 126 324 132 322 137 317 140 311 143 305 145 296 145 287 145 280 143 275 140 270 136 267 132 267 126 267 118 272 112 282 110 278 107 276 105 276 102 276 100 277 98 279 97 281 95 283 94 286 93 277 89 272 83 272 74L272 74ZM295 63C292 63 289 64 287 66 285 69 283 71 283 74 283 77 285 80 287 82 289 84 292 85 295 85 299 85 302 84 304 82 306 80 307 77 307 74 307 71 306 68 304 66 302 64 299 63 295 63L295 63ZM292 117C288 117 285 118 282 119 280 121 278 123 278 126 278 132 284 136 296 136 301 136 305 135 308 133 311 132 313 129 313 126 313 124 311 121 307 119 303 118 298 117 292 117L292 117ZM337 27C339 27 341 27 343 29 344 30 345 32 345 34 345 36 344 37 343 39 341 40 339 41 337 41 336 41 334 40 332 39 331 37 330 36 330 34 330 32 331 30 332 29 334 27 336 27 337 27L337 27ZM331 52L344 52 344 114 331 114 331 52ZM388 52C397 52 405 55 411 61 417 67 420 75 420 84 420 93 417 100 411 106 405 112 397 115 387 115 378 115 370 112 364 106 358 100 355 93 355 84 355 75 358 67 364 61 370 55 378 52 388 52L388 52ZM387 63C381 63 376 65 373 69 369 73 367 78 367 84 367 89 369 94 373 98 377 102 382 104 388 104 394 104 398 102 402 98 406 94 408 89 408 83 408 78 406 73 402 69 398 65 393 63 387 63L387 63ZM484 20L493 20 535 114 521 114 509 86 469 86 458 114 444 114 484 20ZM504 74L488 40 475 74 504 74ZM591 69L591 114 579 114 579 80C579 73 578 68 576 65 574 63 571 61 567 61 564 61 562 62 560 63 558 64 555 66 553 69L553 114 540 114 540 52 553 52 553 60C559 54 565 51 571 51 578 51 585 55 589 62 595 55 602 51 609 51 615 51 620 53 624 58 628 62 630 69 630 78L630 114 618 114 618 77C618 72 616 68 614 66 612 63 609 62 605 62 600 62 596 64 591 69L591 69ZM696 84L653 84C653 90 655 95 659 98 662 102 667 103 673 103 681 103 688 101 695 96L695 108C691 110 687 112 684 113 680 114 676 115 671 115 664 115 659 113 654 111 650 108 647 104 644 99 642 95 641 89 641 83 641 73 643 66 649 60 654 54 661 51 669 51 677 51 684 54 689 60 694 65 696 73 696 83L696 84ZM653 77L684 77C684 72 682 68 680 66 677 63 674 62 669 62 665 62 661 63 658 66 656 68 654 72 653 77L653 77ZM719 52L719 66 720 65C726 56 732 51 738 51 742 51 747 54 752 58L746 69C741 65 737 63 734 63 730 63 726 65 724 68 721 72 719 77 719 82L719 114 707 114 707 52 719 52ZM764 27C766 27 768 27 769 29 770 30 771 32 771 34 771 36 770 37 769 39 768 40 766 41 764 41 762 41 760 40 759 39 758 37 757 36 757 34 757 32 758 30 759 29 760 27 762 27 764 27L764 27ZM758 52L770 52 770 114 758 114 758 52ZM831 99L831 112C825 114 819 115 813 115 803 115 796 112 790 106 784 101 781 93 781 83 781 74 784 66 790 60 795 54 803 51 812 51 815 51 818 51 820 52 823 53 826 54 830 55L830 68C823 65 818 63 812 63 807 63 802 64 799 68 795 72 794 77 794 83 794 89 796 94 799 98 803 102 808 104 815 104 819 104 825 102 831 99L831 99ZM881 77L881 103C881 105 881 106 883 106 884 106 886 105 890 103L890 110C887 112 885 113 883 114 881 115 879 115 878 115 872 115 869 113 868 109 863 113 858 115 852 115 848 115 844 113 841 111 838 108 837 104 837 100 837 96 838 93 841 90 844 86 848 84 853 82L869 77 869 74C869 66 865 63 857 63 851 63 844 66 838 73L838 60C843 54 850 51 858 51 865 51 870 53 874 56 876 58 877 59 878 61 879 63 880 65 880 66 880 68 881 72 881 77L881 77ZM869 102L869 83 860 87C856 88 853 90 852 92 850 93 849 95 849 98 849 100 850 102 851 104 853 106 855 106 858 106 862 106 865 105 869 102L869 102ZM910 52L910 60C915 54 921 51 928 51 932 51 936 52 939 54 942 56 945 59 946 62 948 66 949 71 949 79L949 114 937 114 937 79C937 73 936 68 934 65 932 63 929 61 924 61 919 61 914 64 910 70L910 114 897 114 897 52 910 52ZM992 52C1002 52 1010 55 1016 61 1022 67 1025 75 1025 84 1025 93 1022 100 1016 106 1009 112 1001 115 992 115 983 115 975 112 969 106 963 100 960 93 960 84 960 75 963 67 969 61 975 55 983 52 992 52L992 52ZM992 63C986 63 981 65 977 69 974 73 972 78 972 84 972 89 974 94 978 98 981 102 986 104 992 104 998 104 1003 102 1007 98 1011 94 1013 89 1013 83 1013 78 1011 73 1007 69 1003 65 998 63 992 63L992 63ZM1112 21L1124 21 1124 114 1098 114C1089 114 1082 111 1076 105 1071 99 1068 92 1068 82 1068 73 1071 66 1077 60 1082 54 1090 51 1099 51 1103 51 1107 52 1112 54L1112 21ZM1112 103L1112 64C1108 63 1104 62 1100 62 1094 62 1090 64 1086 68 1082 72 1081 77 1081 84 1081 90 1082 95 1085 98 1087 100 1089 102 1091 102 1093 103 1097 103 1103 103L1112 103ZM1190 84L1147 84C1147 90 1149 95 1153 98 1157 102 1161 103 1167 103 1175 103 1182 101 1189 96L1189 108C1185 110 1182 112 1178 113 1174 114 1170 115 1165 115 1158 115 1153 113 1149 111 1144 108 1141 104 1139 99 1136 95 1135 89 1135 83 1135 73 1137 66 1143 60 1148 54 1155 51 1163 51 1172 51 1178 54 1183 60 1188 65 1190 73 1190 83L1190 84ZM1147 77L1178 77C1178 72 1176 68 1174 66 1171 63 1168 62 1163 62 1159 62 1155 63 1153 66 1150 68 1148 72 1147 77L1147 77ZM1212 20L1290 20 1290 32 1258 32 1258 114 1244 114 1244 32 1212 32 1212 20ZM1307 52C1317 52 1324 55 1331 61 1337 67 1340 75 1340 84 1340 93 1337 100 1331 106 1324 112 1316 115 1307 115 1298 115 1290 112 1284 106 1277 100 1274 93 1274 84 1274 75 1278 67 1284 61 1290 55 1298 52 1307 52L1307 52ZM1307 63C1301 63 1296 65 1292 69 1289 73 1287 78 1287 84 1287 89 1289 94 1292 98 1296 102 1301 104 1307 104 1313 104 1318 102 1322 98 1326 94 1328 89 1328 83 1328 78 1326 73 1322 69 1318 65 1313 63 1307 63L1307 63ZM1364 52L1364 66 1364 65C1370 56 1376 51 1382 51 1387 51 1391 54 1396 58L1390 69C1386 65 1382 63 1378 63 1374 63 1371 65 1368 68 1365 72 1364 77 1364 82L1364 114 1351 114 1351 52 1364 52ZM1414 52L1414 66 1414 65C1420 56 1426 51 1432 51 1437 51 1441 54 1446 58L1440 69C1436 65 1432 63 1428 63 1424 63 1421 65 1418 68 1415 72 1414 77 1414 82L1414 114 1401 114 1401 52 1414 52ZM1502 84L1458 84C1459 90 1461 95 1464 98 1468 102 1473 103 1478 103 1486 103 1494 101 1501 96L1501 108C1497 110 1493 112 1489 113 1486 114 1481 115 1476 115 1470 115 1464 113 1460 111 1456 108 1453 104 1450 99 1447 95 1446 89 1446 83 1446 73 1449 66 1454 60 1459 54 1466 51 1475 51 1483 51 1489 54 1494 60 1499 65 1502 73 1502 83L1502 84ZM1459 77L1490 77C1489 72 1488 68 1485 66 1483 63 1479 62 1475 62 1470 62 1467 63 1464 66 1461 68 1459 72 1459 77L1459 77ZM1541 52C1551 52 1558 55 1565 61 1571 67 1574 75 1574 84 1574 93 1571 100 1565 106 1558 112 1550 115 1541 115 1532 115 1524 112 1518 106 1511 100 1508 93 1508 84 1508 75 1512 67 1518 61 1524 55 1532 52 1541 52L1541 52ZM1541 63C1535 63 1530 65 1526 69 1523 73 1521 78 1521 84 1521 89 1523 94 1526 98 1530 102 1535 104 1541 104 1547 104 1552 102 1556 98 1560 94 1562 89 1562 83 1562 78 1560 73 1556 69 1552 65 1547 63 1541 63L1541 63ZM1555 19L1540 39 1532 39 1541 19 1555 19ZM1597 52L1597 60C1602 54 1608 51 1615 51 1619 51 1623 52 1626 54 1629 56 1632 59 1633 62 1635 66 1636 71 1636 79L1636 114 1624 114 1624 79C1624 73 1623 68 1621 65 1619 63 1616 61 1611 61 1606 61 1601 64 1597 70L1597 114 1584 114 1584 52 1597 52Z" fill="#FFF"/></svg>